<svg id="Layer_1" data-name="Layer 1" xmlns="http://www.w3.org/2000/svg" viewBox="0 0 80 80"><defs><style>.cls-1{fill:#313193;}</style></defs><title>loader-blue</title><path class="cls-1" d="M40,17.2h0c1.55,0,2.8.9,2.8,2h0c0,1.1-1.25,2-2.8,2h0c-1.55,0-2.8-.9-2.8-2h0C37.2,18.1,38.45,17.2,40,17.2Z"/><path class="cls-1" d="M47.8,18.58h0c1.45.52,2.32,1.79,2,2.83h0c-.38,1-1.87,1.45-3.32.92h0c-1.45-.53-2.32-1.8-2-2.83h0C44.86,18.46,46.34,18.05,47.8,18.58Z"/><path class="cls-1" d="M54.66,22.53h0c1.18,1,1.56,2.49.85,3.34h0c-.71.84-2.24.72-3.43-.27h0c-1.18-1-1.56-2.49-.85-3.33h0C51.94,21.42,53.47,21.54,54.66,22.53Z"/><path class="cls-1" d="M59.75,28.6h0c.77,1.34.62,2.87-.34,3.42h0c-.95.56-2.36-.08-3.13-1.42h0c-.77-1.34-.62-2.87.33-3.42h0C57.57,26.62,59,27.26,59.75,28.6Z"/><path class="cls-1" d="M62.45,36h0c.27,1.52-.39,2.91-1.48,3.11h0c-1.09.19-2.19-.89-2.46-2.41h0c-.26-1.53.4-2.92,1.49-3.11h0C61.09,33.44,62.19,34.52,62.45,36Z"/><path class="cls-1" d="M62.45,44h0c-.26,1.52-1.36,2.6-2.45,2.41h0c-1.09-.19-1.75-1.58-1.49-3.11h0c.27-1.52,1.37-2.6,2.46-2.41h0C62.06,41.05,62.72,42.44,62.45,44Z"/><path class="cls-1" d="M59.75,51.4h0c-.78,1.34-2.18,2-3.14,1.42h0c-1-.55-1.1-2.08-.33-3.42h0c.77-1.34,2.18-2,3.13-1.42h0C60.37,48.53,60.52,50.06,59.75,51.4Z"/><path class="cls-1" d="M54.66,57.47h0c-1.19,1-2.72,1.11-3.43.26h0c-.71-.84-.33-2.33.85-3.33h0c1.19-1,2.72-1.11,3.43-.27h0C56.22,55,55.84,56.47,54.66,57.47Z"/><path class="cls-1" d="M47.8,61.42h0c-1.46.53-2.94.12-3.32-.92h0c-.37-1,.5-2.3,2-2.83h0c1.45-.53,2.94-.12,3.32.92h0C50.12,59.63,49.25,60.9,47.8,61.42Z"/><path class="cls-1" d="M40,62.8h0c-1.55,0-2.8-.9-2.8-2h0c0-1.1,1.25-2,2.8-2h0c1.55,0,2.8.9,2.8,2h0C42.8,61.9,41.55,62.8,40,62.8Z"/><path class="cls-1" d="M32.2,61.42h0c-1.45-.52-2.32-1.79-2-2.83h0c.38-1,1.87-1.45,3.32-.92h0c1.45.53,2.32,1.8,2,2.83h0C35.14,61.54,33.66,62,32.2,61.42Z"/><path class="cls-1" d="M25.34,57.47h0c-1.18-1-1.56-2.49-.85-3.34h0c.71-.84,2.24-.72,3.43.27h0c1.18,1,1.56,2.49.85,3.33h0C28.06,58.58,26.53,58.46,25.34,57.47Z"/><path class="cls-1" d="M20.25,51.4h0c-.77-1.34-.62-2.87.34-3.42h0c.95-.56,2.36.08,3.13,1.42h0c.77,1.34.62,2.87-.33,3.42h0C22.43,53.38,21,52.74,20.25,51.4Z"/><path class="cls-1" d="M17.55,44h0c-.27-1.52.39-2.91,1.48-3.11h0c1.09-.19,2.19.89,2.46,2.41h0c.26,1.53-.4,2.92-1.49,3.11h0C18.91,46.56,17.81,45.48,17.55,44Z"/><path class="cls-1" d="M17.55,36h0c.26-1.52,1.36-2.6,2.45-2.41h0c1.09.19,1.75,1.58,1.49,3.11h0c-.27,1.52-1.37,2.6-2.46,2.41h0C17.94,39,17.28,37.56,17.55,36Z"/><path class="cls-1" d="M20.25,28.6h0c.78-1.34,2.18-2,3.14-1.42h0c.95.55,1.1,2.08.33,3.42h0c-.77,1.34-2.18,2-3.13,1.42h0C19.63,31.47,19.48,29.94,20.25,28.6Z"/><path class="cls-1" d="M25.34,22.53h0c1.19-1,2.72-1.11,3.43-.26h0c.71.84.33,2.33-.85,3.33h0c-1.19,1-2.72,1.11-3.43.27h0C23.78,25,24.16,23.53,25.34,22.53Z"/><path class="cls-1" d="M32.2,18.58h0c1.46-.53,2.94-.12,3.32.92h0c.37,1-.5,2.3-2,2.83h0c-1.45.53-2.94.12-3.32-.92h0C29.88,20.37,30.75,19.1,32.2,18.58Z"/></svg>